<svg xmlns="http://www.w3.org/2000/svg" viewBox="0 0 1400 900" fill="none">
  <defs>
    <linearGradient id="sky" x1="700" y1="0" x2="700" y2="900" gradientUnits="userSpaceOnUse">
      <stop stop-color="#B7DCF4"/>
      <stop offset="1" stop-color="#F4EED8"/>
    </linearGradient>
    <linearGradient id="panel" x1="420" y1="496" x2="906" y2="752" gradientUnits="userSpaceOnUse">
      <stop stop-color="#315D83"/>
      <stop offset="1" stop-color="#173953"/>
    </linearGradient>
  </defs>
  <path fill="url(#sky)" d="M0 0h1400v900H0z"/>
  <circle cx="1048" cy="191" r="94" fill="#FFE6A1"/>
  <path d="M0 560c219-68 370-67 577 0s470 58 823-30v370H0V560Z" fill="#87AB80"/>
  <path d="M0 694c222-75 445-61 691 8 230 64 475 33 709-49v247H0V694Z" fill="#5A805F"/>
  <path d="m208 506 304 0-82 209H126l82-209Z" fill="url(#panel)" stroke="#E9F4F8" stroke-width="12"/>
  <path d="m278 507-54 208m153-208-39 208m147-208-26 208M174 599h294m-322 70h294" stroke="#95BDCE" stroke-width="7"/>
  <path d="M665 170v497" stroke="#E9EFE9" stroke-width="17"/>
  <path d="M657 184 480 119m185 70 164-125m-160 129 26 190" stroke="#E9EFE9" stroke-width="15" stroke-linecap="round"/>
  <circle cx="665" cy="189" r="23" fill="#E9EFE9"/>
  <path d="M1030 548V358h146v190m-189 0h231m-192-135h158m-158 47h158" stroke="#F4F1E5" stroke-width="18"/>
  <path d="M1098 369v-76m-45 266v-47m92 47v-47" stroke="#F4F1E5" stroke-width="10"/>
  <path d="m910 551 45-124 48 124m-80-30h66" stroke="#F3E9CF" stroke-width="14" stroke-linecap="round" stroke-linejoin="round"/>
</svg>
